<?xml version="1.0" encoding="UTF-8"?>
<svg id="Layer_1" data-name="Layer 1" xmlns="http://www.w3.org/2000/svg" xmlns:xlink="http://www.w3.org/1999/xlink" viewBox="0 0 594.63 137.02">
  <defs>
    <style>
      .cls-1 {
        fill: url(#linear-gradient-3);
      }

      .cls-2 {
        fill: url(#linear-gradient-2);
      }

      .cls-3 {
        fill: url(#linear-gradient);
      }

      .cls-4, .cls-5 {
        fill: #041e22;
      }

      .cls-5 {
        fill-rule: evenodd;
      }
    </style>
    <linearGradient id="linear-gradient" x1="322.5" y1="70.31" x2="396.8" y2="70.31" gradientUnits="userSpaceOnUse">
      <stop offset="0" stop-color="#0dbe00"/>
      <stop offset="1" stop-color="#84e816"/>
    </linearGradient>
    <linearGradient id="linear-gradient-2" x1="410.37" y1="15.11" x2="435.97" y2="15.11" gradientUnits="userSpaceOnUse">
      <stop offset="0" stop-color="#9bf11b"/>
      <stop offset="1" stop-color="#c2fe22"/>
    </linearGradient>
    <linearGradient id="linear-gradient-3" x1="410.93" y1="70.31" x2="435.41" y2="70.31" xlink:href="#linear-gradient-2"/>
  </defs>
  <g>
    <path class="cls-5" d="M217.7,80.87c2.62,0,4.88-.58,6.79-1.75,1.91-1.16,3.38-2.7,4.41-4.61,1.02-1.92,1.54-3.99,1.54-6.23s-.52-4.43-1.54-6.3c-1.03-1.86-2.47-3.38-4.34-4.54-1.87-1.17-4.1-1.75-6.72-1.75s-4.73.58-6.64,1.75c-1.91,1.16-3.38,2.7-4.41,4.61-1.03,1.92-1.54,3.99-1.54,6.23s.51,4.17,1.54,6.09c1.03,1.91,2.47,3.47,4.34,4.68,1.86,1.22,4.06,1.82,6.57,1.82ZM229.04,97.48c-1.25.84-2.6,1.58-4.06,2.21-3.54,1.54-7.46,2.31-11.75,2.31-6.35,0-11.97-1.47-16.86-4.41-4.9-2.94-8.75-6.97-11.55-12.1-2.79-5.13-4.19-10.87-4.19-17.21s1.4-12.03,4.19-17.07c2.8-5.04,6.65-9.05,11.55-12.03,4.89-2.99,10.51-4.48,16.86-4.48,4.29,0,8.23.77,11.82,2.31,1.6.69,3.07,1.49,4.41,2.42v-3.33h23.92v63.66c0,7.28-1.7,13.6-5.1,18.96-3.41,5.36-8.05,9.51-13.93,12.45-5.87,2.94-12.54,4.41-20,4.41s-14.25-1.28-20.08-3.85c-5.83-2.56-10.38-6.18-13.64-10.84l14.69-14.55c2.33,2.52,4.89,4.5,7.69,5.94,2.8,1.45,6.21,2.17,10.22,2.17,4.85,0,8.7-1.19,11.54-3.57,2.85-2.37,4.27-5.8,4.27-10.28v-3.12Z"/>
    <path class="cls-5" d="M291.86,67.3v37.22h-24.35V36.1h24.35v4.36c4.46-3.84,10.24-5.76,17.35-5.76,3.26,0,6.09.42,8.46,1.26,2.38.84,4.41,2.14,6.09,3.92l-14.13,18.89c-.75-.84-1.8-1.52-3.15-2.03-1.35-.52-2.87-.77-4.55-.77-3.17,0-5.64.95-7.41,2.87-1.77,1.91-2.66,4.73-2.66,8.46Z"/>
    <path class="cls-3" d="M372.87,40.61c-1.71-1.45-3.67-2.65-5.87-3.6-3.55-1.54-7.47-2.31-11.76-2.31-6.34,0-11.98,1.52-16.93,4.55-4.94,3.03-8.81,7.25-11.61,12.66-2.8,5.41-4.2,11.57-4.2,18.47s1.4,12.89,4.2,18.26c2.8,5.36,6.67,9.58,11.61,12.66,4.95,3.08,10.59,4.62,16.93,4.62,4.29,0,8.21-.8,11.76-2.38,2.2-.99,4.16-2.2,5.87-3.63v4.61h23.93V36.1h-23.93v4.51ZM370.14,80.31c-2.47,2.61-5.71,3.92-9.72,3.92-2.52,0-4.8-.61-6.86-1.82-2.05-1.21-3.63-2.87-4.75-4.97-1.12-2.09-1.68-4.5-1.68-7.2s.58-4.97,1.75-7.07c1.16-2.1,2.75-3.75,4.75-4.96,2.01-1.22,4.32-1.82,6.93-1.82s4.92.6,6.93,1.82c2,1.21,3.56,2.84,4.68,4.89,1.12,2.06,1.68,4.43,1.68,7.14,0,4.1-1.23,7.46-3.71,10.07Z"/>
    <path class="cls-2" d="M423.1,28.12c3.83,0,6.93-1.23,9.31-3.7,2.37-2.48,3.56-5.58,3.56-9.31s-1.19-6.71-3.56-9.23c-2.38-2.52-5.48-3.78-9.31-3.78s-6.67,1.26-9.09,3.78c-2.43,2.52-3.64,5.59-3.64,9.23s1.21,6.83,3.64,9.31c2.42,2.47,5.45,3.7,9.09,3.7Z"/>
    <rect class="cls-1" x="410.93" y="36.1" width="24.48" height="68.42"/>
    <polygon class="cls-5" points="566.52 36.1 554.71 75.41 543.01 36.1 519.5 36.1 516.99 36.1 493.76 36.1 481.08 77.57 468.29 36.1 442.27 36.1 470.11 104.52 491.66 104.52 518.24 39.22 542.94 101 528.18 133.48 552.66 133.48 564.42 104.66 592.54 36.1 566.52 36.1"/>
  </g>
  <g>
    <path class="cls-4" d="M67.05,52.1c-2.89-5.39-6.86-9.67-11.91-12.85s-10.71-4.76-16.96-4.76c-5.1,0-9.75,1.08-13.93,3.25-3.69,1.91-6.75,4.46-9.17,7.64V1.43H2.08v103.08h12.99v-9.38c2.37,3.16,5.38,5.69,9.02,7.58,4.19,2.17,8.88,3.25,14.08,3.25,6.25,0,11.91-1.56,16.96-4.69,5.05-3.13,9.02-7.39,11.91-12.78,2.89-5.39,4.33-11.45,4.33-18.19s-1.44-12.8-4.33-18.19ZM55.21,82.35c-1.93,3.51-4.53,6.28-7.8,8.3-3.27,2.02-7.07,3.03-11.41,3.03s-8.01-1.01-11.33-3.03c-3.32-2.02-5.87-4.79-7.65-8.3-1.78-3.51-2.67-7.53-2.67-12.05s.91-8.71,2.74-12.27c1.83-3.56,4.38-6.33,7.65-8.3,3.27-1.97,7.07-2.96,11.41-2.96s7.99.99,11.26,2.96c3.27,1.97,5.87,4.74,7.8,8.3,1.92,3.56,2.89,7.6,2.89,12.13s-.96,8.69-2.89,12.2Z"/>
    <polygon class="cls-4" points="127.62 35.93 106.75 84.55 86.91 35.93 72.47 35.93 99.45 98.66 82.58 133.24 97.02 133.24 110.01 105.09 142.06 35.93 127.62 35.93"/>
  </g>
</svg>