<?xml version="1.0" encoding="UTF-8"?>
<svg id="Layer_1" data-name="Layer 1" xmlns="http://www.w3.org/2000/svg" xmlns:xlink="http://www.w3.org/1999/xlink" viewBox="0 0 556.45 80.47">
  <defs>
    <style>
      .cls-1 {
        fill: url(#_deg_gradient);
      }

      .cls-2 {
        fill: #fff;
      }
    </style>
    <linearGradient id="_deg_gradient" data-name="$% deg gradient" x1="533.43" y1="51.35" x2="498.66" y2="16.58" gradientUnits="userSpaceOnUse">
      <stop offset="0" stop-color="#c4ff22"/>
      <stop offset="1" stop-color="#0dbe00"/>
    </linearGradient>
  </defs>
  <polyline class="cls-2" points="519.14 58.3 534.56 78.14 555.48 78.15 527.91 43.64"/>
  <g>
    <path class="cls-2" d="M39.96,35.22v14.27l21.76.35c-.41,1.56-.95,3-1.65,4.32-1.68,3.18-4.08,5.62-7.19,7.29-3.11,1.68-6.88,2.52-11.32,2.52s-8.22-1-11.59-3c-3.36-2-6.01-4.79-7.94-8.37-1.93-3.58-2.9-7.72-2.9-12.44s.98-8.85,2.95-12.39c1.97-3.54,4.7-6.29,8.21-8.26,3.5-1.97,7.47-2.95,11.91-2.95,4.15,0,7.87.79,11.16,2.36,3.29,1.57,6.15,3.93,8.58,7.08l11.48-11.48c-3.5-4.15-7.92-7.4-13.25-9.76-5.33-2.36-11.25-3.54-17.75-3.54-5.65,0-10.94.98-15.88,2.95-4.93,1.97-9.24,4.72-12.93,8.26-3.68,3.54-6.56,7.67-8.64,12.39-2.08,4.72-3.11,9.83-3.11,15.34s1.02,10.64,3.06,15.39c2.04,4.76,4.84,8.9,8.42,12.44,3.58,3.54,7.78,6.31,12.6,8.31,4.83,2,9.99,3,15.5,3,7.51,0,14.14-1.57,19.9-4.72,5.76-3.15,10.26-7.81,13.52-14,3.25-6.18,4.88-13.82,4.88-22.9v-2.47h-39.8Z"/>
    <path class="cls-2" d="M111.03,79.3c-4.79,0-9.03-.98-12.71-2.95-3.68-1.97-6.56-4.68-8.64-8.15-2.08-3.47-3.11-7.46-3.11-11.96v-30.25h16.41v30.04c0,1.79.3,3.33.91,4.61.61,1.29,1.52,2.29,2.74,3,1.22.72,2.68,1.07,4.4,1.07,2.43,0,4.36-.77,5.79-2.31,1.43-1.54,2.15-3.66,2.15-6.38v-30.04h16.41v30.14c0,4.58-1.04,8.6-3.11,12.07-2.08,3.47-4.93,6.19-8.58,8.15-3.65,1.97-7.87,2.95-12.66,2.95Z"/>
    <path class="cls-2" d="M191.67,37.36c-2.25-3.93-5.35-7.01-9.28-9.23-3.93-2.22-8.47-3.33-13.62-3.33s-10.05,1.18-14.27,3.54c-4.22,2.36-7.56,5.6-10.03,9.71-2.47,4.11-3.7,8.78-3.7,14s1.25,9.91,3.75,14.05c2.5,4.15,5.95,7.38,10.35,9.71,4.4,2.32,9.42,3.49,15.07,3.49,4.36,0,8.37-.75,12.01-2.25,3.65-1.5,6.76-3.75,9.33-6.76l-9.01-9.01c-1.57,1.79-3.4,3.13-5.47,4.02-2.08.89-4.4,1.34-6.97,1.34-2.79,0-5.2-.59-7.24-1.77-2.04-1.18-3.61-2.86-4.72-5.04-.37-.72-.67-1.5-.92-2.32l37.33-.09c.28-1.36.48-2.56.59-3.59.11-1.04.16-2.02.16-2.95,0-5.08-1.13-9.58-3.38-13.52ZM162.17,39.13c1.89-1.18,4.13-1.77,6.7-1.77,2.43,0,4.49.52,6.17,1.55,1.68,1.04,2.95,2.54,3.81,4.51.36.83.65,1.75.87,2.76l-22.75.06c.22-.75.49-1.46.81-2.12,1.04-2.15,2.5-3.81,4.4-4.99Z"/>
    <path class="cls-2" d="M219.73,79.41c-3.08,0-6.1-.39-9.06-1.18-2.97-.79-5.72-1.91-8.26-3.38-2.54-1.46-4.7-3.16-6.49-5.1l9.33-9.44c1.72,1.86,3.75,3.31,6.11,4.35,2.36,1.04,4.93,1.55,7.72,1.55,1.93,0,3.41-.28,4.45-.86,1.04-.57,1.56-1.36,1.56-2.36,0-1.29-.63-2.27-1.88-2.95-1.25-.68-2.84-1.29-4.77-1.82s-3.97-1.13-6.11-1.77c-2.15-.64-4.18-1.54-6.11-2.68-1.93-1.14-3.5-2.74-4.72-4.77-1.22-2.04-1.82-4.63-1.82-7.78,0-3.36.86-6.27,2.57-8.74,1.72-2.47,4.15-4.42,7.29-5.85,3.15-1.43,6.83-2.15,11.05-2.15,4.43,0,8.53.77,12.28,2.31,3.75,1.54,6.81,3.81,9.17,6.81l-9.33,9.44c-1.65-1.93-3.49-3.29-5.52-4.08-2.04-.79-4.02-1.18-5.95-1.18s-3.26.27-4.18.8c-.93.54-1.39,1.31-1.39,2.31,0,1.07.61,1.93,1.82,2.57,1.22.64,2.79,1.22,4.72,1.72,1.93.5,3.97,1.11,6.11,1.82,2.15.72,4.18,1.68,6.11,2.9,1.93,1.22,3.5,2.84,4.72,4.88,1.22,2.04,1.82,4.7,1.82,7.99,0,5.08-1.91,9.12-5.74,12.12-3.83,3-8.99,4.51-15.5,4.51Z"/>
    <polygon class="cls-2" points="284.63 25.99 272.83 25.99 272.83 4.43 256.41 4.43 256.41 25.99 244.61 25.99 244.61 39.94 256.41 39.94 256.41 78.12 272.83 78.12 272.83 39.94 284.63 39.94 284.63 25.99"/>
    <polygon class="cls-2" points="357.21 2.39 330.55 44.07 303.79 2.39 291.78 2.39 291.78 78.12 308.51 78.12 308.51 36.11 324.93 61.82 336.08 61.82 352.49 36.25 352.49 78.12 369.34 78.12 369.34 2.39 357.21 2.39"/>
    <path class="cls-2" d="M417.43,25.99v4.31c-1.41-1.34-3.03-2.45-4.88-3.34-2.83-1.36-5.99-2.04-9.49-2.04-4.79,0-9.06,1.18-12.82,3.54s-6.72,5.58-8.9,9.66c-2.18,4.08-3.27,8.73-3.27,13.94s1.09,9.87,3.27,13.95c2.18,4.08,5.15,7.29,8.9,9.65s8.03,3.54,12.82,3.54c3.5,0,6.69-.68,9.55-2.04,1.84-.87,3.45-1.96,4.83-3.27v4.23h16.09V25.99h-16.09ZM406.39,64.39c-2.22,0-4.22-.54-6.01-1.61-1.79-1.07-3.18-2.54-4.18-4.4-1-1.86-1.5-3.97-1.5-6.33s.52-4.58,1.56-6.44c1.04-1.86,2.43-3.31,4.18-4.35,1.75-1.04,3.77-1.56,6.06-1.56s4.31.52,6.06,1.56c1.75,1.04,3.11,2.49,4.08,4.35.97,1.86,1.45,4.01,1.45,6.44,0,3.58-1.07,6.53-3.22,8.85-2.15,2.33-4.97,3.49-8.47,3.49Z"/>
    <path class="cls-2" d="M479.59,26.04c-1.9-.75-4.09-1.13-6.6-1.13-5.72,0-10.19,1.68-13.41,5.04v-3.97h-16.41v52.13h16.41v-28.64c0-3.36.8-5.88,2.41-7.56,1.61-1.68,3.77-2.52,6.49-2.52,1.36,0,2.57.21,3.65.64,1.07.43,1.97,1.04,2.68,1.82l9.76-12.34c-1.43-1.57-3.09-2.74-4.99-3.49Z"/>
  </g>
  <polygon class="cls-1" points="534.44 2.39 506.49 46.08 506.43 25.99 489.25 25.99 489.25 41.83 489.25 78.2 489.25 78.2 506.58 78.2 555.48 2.36 534.44 2.39"/>
</svg>